<mxfile host="app.diagrams.net" agent="Mozilla/5.0 (Windows NT 10.0; Win64; x64) AppleWebKit/537.36 (KHTML, like Gecko) Chrome/135.0.0.0 Safari/537.36" version="26.2.13" pages="2">
  <diagram name="Page-1" id="uW3dOMuiEI5ObH0-jcux">
    <mxGraphModel dx="1044" dy="534" grid="1" gridSize="10" guides="1" tooltips="1" connect="1" arrows="1" fold="1" page="1" pageScale="1" pageWidth="850" pageHeight="1100" math="0" shadow="0">
      <root>
        <mxCell id="0" />
        <mxCell id="1" parent="0" />
        <mxCell id="7dhZKbkx1v7_6WOr9_Gl-1" value="&lt;font style=&quot;font-size: 24px;&quot; face=&quot;Inter&quot;&gt;Backend, API&lt;/font&gt;&lt;div&gt;&lt;font size=&quot;3&quot; face=&quot;Inter&quot;&gt;&lt;br&gt;&lt;/font&gt;&lt;/div&gt;&lt;div&gt;&lt;font size=&quot;3&quot; face=&quot;Inter&quot;&gt;Node&lt;/font&gt;&lt;/div&gt;&lt;div&gt;&lt;font size=&quot;3&quot; face=&quot;Inter&quot;&gt;Express&lt;/font&gt;&lt;/div&gt;&lt;div&gt;&lt;font size=&quot;3&quot; face=&quot;Inter&quot;&gt;RESTful API&lt;/font&gt;&lt;/div&gt;&lt;div&gt;&lt;font size=&quot;3&quot; face=&quot;Inter&quot;&gt;Microservice&lt;/font&gt;&lt;/div&gt;" style="rounded=0;whiteSpace=wrap;html=1;fillColor=#1ba1e2;fontColor=#ffffff;strokeColor=#006EAF;" vertex="1" parent="1">
          <mxGeometry x="300" y="360" width="200" height="130" as="geometry" />
        </mxCell>
        <mxCell id="7dhZKbkx1v7_6WOr9_Gl-2" value="&lt;font face=&quot;Inter&quot;&gt;&lt;span style=&quot;font-size: 24px;&quot;&gt;WEB frontend&lt;/span&gt;&lt;/font&gt;&lt;br&gt;&lt;div&gt;&lt;font size=&quot;3&quot; face=&quot;Inter&quot;&gt;(React, Next, Tailwind)&lt;/font&gt;&lt;/div&gt;" style="rounded=0;whiteSpace=wrap;html=1;fillColor=#1ba1e2;fontColor=#ffffff;strokeColor=#006EAF;" vertex="1" parent="1">
          <mxGeometry x="120" y="240" width="160" height="80" as="geometry" />
        </mxCell>
        <mxCell id="7dhZKbkx1v7_6WOr9_Gl-3" value="&lt;font style=&quot;font-size: 24px;&quot; face=&quot;Inter&quot;&gt;DATABASE&lt;/font&gt;&lt;div&gt;&lt;font size=&quot;3&quot; face=&quot;Inter&quot;&gt;(PostgreSQL)&lt;/font&gt;&lt;/div&gt;" style="rounded=0;whiteSpace=wrap;html=1;fillColor=#1ba1e2;fontColor=#ffffff;strokeColor=#006EAF;" vertex="1" parent="1">
          <mxGeometry x="320" y="600" width="160" height="80" as="geometry" />
        </mxCell>
        <mxCell id="7dhZKbkx1v7_6WOr9_Gl-4" value="&lt;font face=&quot;Inter&quot;&gt;&lt;span style=&quot;font-size: 24px;&quot;&gt;APP frontend&lt;/span&gt;&lt;/font&gt;&lt;br&gt;&lt;div&gt;&lt;font size=&quot;3&quot; face=&quot;Inter&quot;&gt;(React Native)&lt;/font&gt;&lt;/div&gt;" style="rounded=0;whiteSpace=wrap;html=1;fillColor=#1ba1e2;fontColor=#ffffff;strokeColor=#006EAF;" vertex="1" parent="1">
          <mxGeometry x="560" y="240" width="160" height="80" as="geometry" />
        </mxCell>
        <mxCell id="7dhZKbkx1v7_6WOr9_Gl-5" style="edgeStyle=orthogonalEdgeStyle;rounded=0;orthogonalLoop=1;jettySize=auto;html=1;entryX=0.5;entryY=1;entryDx=0;entryDy=0;" edge="1" parent="1" source="7dhZKbkx1v7_6WOr9_Gl-1" target="7dhZKbkx1v7_6WOr9_Gl-4">
          <mxGeometry relative="1" as="geometry">
            <Array as="points">
              <mxPoint x="640" y="420" />
            </Array>
          </mxGeometry>
        </mxCell>
        <mxCell id="7dhZKbkx1v7_6WOr9_Gl-6" style="edgeStyle=orthogonalEdgeStyle;rounded=0;orthogonalLoop=1;jettySize=auto;html=1;exitX=0.5;exitY=1;exitDx=0;exitDy=0;entryX=-0.006;entryY=0.617;entryDx=0;entryDy=0;entryPerimeter=0;" edge="1" parent="1" source="7dhZKbkx1v7_6WOr9_Gl-2" target="7dhZKbkx1v7_6WOr9_Gl-1">
          <mxGeometry relative="1" as="geometry">
            <mxPoint x="60" y="425" as="sourcePoint" />
            <mxPoint x="60" y="320" as="targetPoint" />
            <Array as="points">
              <mxPoint x="200" y="440" />
            </Array>
          </mxGeometry>
        </mxCell>
        <mxCell id="7dhZKbkx1v7_6WOr9_Gl-7" style="edgeStyle=orthogonalEdgeStyle;rounded=0;orthogonalLoop=1;jettySize=auto;html=1;entryX=0.5;entryY=0;entryDx=0;entryDy=0;" edge="1" parent="1" target="7dhZKbkx1v7_6WOr9_Gl-3">
          <mxGeometry relative="1" as="geometry">
            <mxPoint x="400" y="520" as="sourcePoint" />
            <mxPoint x="540" y="460" as="targetPoint" />
            <Array as="points">
              <mxPoint x="400" y="560" />
              <mxPoint x="400" y="560" />
            </Array>
          </mxGeometry>
        </mxCell>
      </root>
    </mxGraphModel>
  </diagram>
  <diagram name="Copy of Page-1" id="uNNdDeAe0o21gRrDVHO-">
    <mxGraphModel dx="1044" dy="534" grid="1" gridSize="10" guides="1" tooltips="1" connect="1" arrows="1" fold="1" page="1" pageScale="1" pageWidth="850" pageHeight="1100" math="0" shadow="0">
      <root>
        <mxCell id="UVOJNviR-umzuXDrBaZI-0" />
        <mxCell id="UVOJNviR-umzuXDrBaZI-1" parent="UVOJNviR-umzuXDrBaZI-0" />
      </root>
    </mxGraphModel>
  </diagram>
</mxfile>
